<?xml version="1.0" encoding="utf-8"?>
<!-- Generator: Adobe Illustrator 16.0.0, SVG Export Plug-In . SVG Version: 6.00 Build 0)  -->
<!DOCTYPE svg PUBLIC "-//W3C//DTD SVG 1.1//EN" "http://www.w3.org/Graphics/SVG/1.1/DTD/svg11.dtd">
<svg version="1.1" id="Calque_1" xmlns="http://www.w3.org/2000/svg" xmlns:xlink="http://www.w3.org/1999/xlink" x="0px" y="0px"
	 width="286px" height="329px" viewBox="5.819 5.579 286 329" enable-background="new 5.819 5.579 286 329" xml:space="preserve">
<g>
	<g>
		<path fill="#00AAAD" d="M7.086,308.349h3.584v25.047H7.086V308.349z"/>
		<path fill="#00AAAD" d="M18.099,308.349h4.885l11.053,20.164h0.066v-20.164h3.59v25.047h-4.594l-11.341-20.603h-0.071v20.603
			h-3.588V308.349z"/>
		<path fill="#00AAAD" d="M50.108,311.504h-7.785v-3.155h19.16v3.155h-7.787v21.892h-3.588V311.504z"/>
		<path fill="#00AAAD" d="M66.328,308.349h14.031v3.155H69.916v7.32h9.508v3.155h-9.508v8.254h10.443v3.16H66.328V308.349z"/>
		<path fill="#00AAAD" d="M86.96,308.349h6.131c4.959,0,9.73,0.793,9.73,6.776c0,3.056-2.266,5.207-5.166,5.703v0.073
			c1.107,0.431,1.641,0.974,2.436,2.517l4.736,9.978h-4.086l-3.848-8.688c-1.109-2.435-2.295-2.435-4.189-2.435h-2.158v11.121H86.96
			V308.349z M90.546,319.11h3.047c3.419,0,5.425-1.504,5.425-3.91c0-2.262-1.726-3.695-5.023-3.695h-3.447L90.546,319.11
			L90.546,319.11z"/>
		<path fill="#00AAAD" d="M110.137,308.349h4.883l11.055,20.164h0.068v-20.164h3.588v25.047h-4.599l-11.334-20.603h-0.067v20.603
			h-3.594V308.349z"/>
		<path fill="#00AAAD" d="M145.088,308.349h3.763l10.589,25.047h-3.914l-2.543-6.32h-12.27l-2.547,6.32h-3.771L145.088,308.349z
			 M146.847,311.719l-4.99,12.41h9.979L146.847,311.719z"/>
		<path fill="#00AAAD" d="M166.471,311.504h-7.781v-3.155h19.16v3.155h-7.793v21.892h-3.586V311.504z"/>
		<path fill="#00AAAD" d="M182.518,308.349h3.579v25.047h-3.579V308.349z"/>
		<path fill="#00AAAD" d="M204.327,307.911c7.609,0,12.062,5.531,12.062,12.957c0,7.609-4.414,12.957-12.062,12.957
			c-7.645,0-12.051-5.348-12.051-12.957C192.276,313.442,196.717,307.911,204.327,307.911z M204.327,330.665
			c5.777,0,8.258-4.809,8.258-9.797c0-5.098-2.729-9.828-8.258-9.793c-5.527-0.035-8.254,4.695-8.254,9.793
			C196.073,325.856,198.554,330.665,204.327,330.665z"/>
		<path fill="#00AAAD" d="M222.522,308.349h4.879l11.051,20.164h0.074v-20.164h3.586v25.047h-4.594l-11.336-20.603h-0.074v20.603
			h-3.586V308.349z"/>
		<path fill="#00AAAD" d="M257.469,308.349h3.77l10.59,25.047h-3.914l-2.547-6.32h-12.272l-2.552,6.32h-3.763L257.469,308.349z
			 M259.23,311.719l-4.987,12.41h9.973L259.23,311.719z"/>
		<path fill="#00AAAD" d="M276.484,308.349h3.591v21.887h10.477v3.16h-14.066L276.484,308.349L276.484,308.349z"/>
	</g>
	<g>
		<g>
			<rect x="7.086" y="4.333" fill="#00AAAD" width="283.465" height="283.461"/>
			<g>
				<path d="M150.892,182.282c-36.355-0.219-57.752-30.598-57.752-58.902c0-28.301,20.707-52.922,52.92-58.441
					c0,0,13.573-0.691,17.479,0.688c0,0,4.375,0.922,2.539-0.918c0,0-6.216-3.219-20.02-3.219c-13.806,0-69.025,13.57-69.025,70.176
					c0,0,3.912,64.883,73.627,60.051c0,0,43.254-0.233,58.44-40.031c0,0,0.688-5.062-1.613-1.152
					C205.188,154.438,189.086,182.513,150.892,182.282z"/>
				<path fill="#AEDFE6" d="M176.661,64.938c0,0,22.086-4.602,22.776,10.121c0,0,6.211,16.797-56.141,48.551
					c-62.352,31.754-63.504,54.297-59.358,64.196c4.141,9.895,15.412,16.104,31.52,7.133c0,0-19.096,1.147-21.396-8.056
					c-2.3-9.202,6.44-16.797,14.037-22.316c7.59-5.523,26.688-17.027,47.159-29.223c20.479-12.195,67.875-41.184,53.844-66.727
					C209.102,68.618,203.579,51.821,176.661,64.938z"/>
				<path fill="#AEDFE6" d="M237.633,43.079c0,0-5.984-4.598-12.656,2.531c-6.672,7.133-2.07,12.426-2.07,12.426
					s5.062,4.602,12.652-3.453C243.152,46.528,237.633,43.079,237.633,43.079z"/>
			</g>
		</g>
		<g>
			<path fill="#FFFFFF" d="M78.001,235.394c-2.412-1.42-5.099-2.138-7.896-2.138c-8.818,0-14.688,6.356-14.688,14.963
				c0,8.99,6.472,14.968,14.42,14.968c2.739,0,6.41-0.715,8.334-1.871l0.324,5.328c-2.904,1.2-6.471,1.364-8.716,1.364
				c-12.112,0-20.172-7.778-20.172-19.957c0-11.78,8.554-19.623,20.229-19.623c2.961,0,5.867,0.439,8.604,1.648L78.001,235.394z"/>
			<path fill="#FFFFFF" d="M116.483,251.508c0,10.746-5.426,16.5-14.855,16.5c-9.428,0-14.854-5.754-14.854-16.5v-22.424h5.479
				v21.711c0,7.343,2.305,12.392,9.375,12.392c7.066,0,9.365-5.049,9.365-12.392v-21.711h5.49V251.508z"/>
			<path fill="#FFFFFF" d="M127.881,229.084h5.479v33.44h16.011v4.822h-21.489L127.881,229.084L127.881,229.084z"/>
			<path fill="#FFFFFF" d="M156.93,229.084h5.486v33.44h16.002v4.822H156.93V229.084z"/>
			<path fill="#FFFFFF" d="M186.313,229.084h21.432v4.828h-15.951v11.176h14.523v4.824h-14.523v12.612h15.951v4.822h-21.432V229.084
				L186.313,229.084z"/>
			<path fill="#FFFFFF" d="M218.105,229.084h7.457l16.878,30.812h0.111v-30.812h5.479v38.265h-7.014l-17.325-31.464h-0.106v31.464
				h-5.479V229.084z"/>
		</g>
	</g>
</g>
</svg>
